<svg width="697" height="564" viewBox="0 0 697 564" fill="none" xmlns="http://www.w3.org/2000/svg">
<path d="M506.308 40.3838C541.97 40.3838 562.885 71.197 550.538 105.768C543.014 126.837 519.508 143.327 504.385 159.615C477.098 189.001 449.951 219.817 421.479 248.29C374.372 295.397 336.974 349.664 287.077 394.016C240.47 435.444 187.905 470.199 135.368 503.632C119.752 513.569 100.868 499.929 90.0684 489.529C65.5945 465.962 87.6971 440.144 109.299 422.862C133.99 403.11 167.267 393.915 190.496 371.58C216.187 346.878 243.096 323.989 270.838 301.922C331.903 253.347 371.696 184.397 426.393 129.7C442.982 113.111 465.553 100.765 479.385 81.8368C487.379 70.8968 497.511 52.2904 510.154 48.0761" stroke="black" stroke-width="3" stroke-linecap="round"/>
<path d="M79.3846 24.999C98.4208 27.1142 123.806 45.3683 140.068 54.9136C157.696 65.26 174.716 76.4389 192.632 86.3238C208.05 94.8299 227.035 100.471 240.068 112.606C286.868 156.178 344.421 185.004 396.692 221.367C434.459 247.639 475.102 270.901 512.077 298.29C532.21 313.203 566.347 323.55 579.385 346.367C582.955 352.615 589.751 354.634 591.778 361.324C594.086 368.942 597.268 377.634 600.538 384.828C607.788 400.778 602.168 421.814 595.624 436.538C593.247 441.886 596.116 448.171 594.556 453.632C592.206 461.855 565.976 438.988 564 437.392C529.874 409.829 489.053 389.955 449.47 372.862C365.026 336.398 295.78 279.519 219.769 228.845C183.733 204.821 155.827 170.071 129.171 136.751C119.389 124.523 105.598 115.544 96.4786 102.777C90.5393 94.4617 87.6372 83.62 79.3846 77.1358C68.5554 68.6271 57.6568 57.0022 60.3675 42.093C63.1265 26.9184 94.1111 24.999 106.308 24.999" stroke="black" stroke-width="3" stroke-linecap="round"/>
<path d="M252.462 5.76855C252.462 25.5808 257.008 44.5251 262.077 63.6745C272.287 102.247 274.376 143.444 287.932 180.982C301.581 218.779 301.981 255.875 312.077 294.016C320.06 324.176 316.515 355.522 322.547 385.683C332.838 437.136 332.965 489.196 351.607 539.529C362.999 570.287 429.385 569.453 429.385 532.905C429.385 504.674 433.209 472.756 427.675 445.085C419.144 402.427 410.247 360.128 402.462 317.307C397.087 287.749 402.579 256.931 394.769 227.991C385.831 194.867 385.325 160.357 379.385 126.495C371.686 82.6122 371.444 9.6147 310.154 9.6147C296.082 9.6147 264.737 -8.4661 257.162 10.4694C251.664 24.2145 252.462 36.6957 252.462 51.9224" stroke="black" stroke-width="3" stroke-linecap="round"/>
<path d="M17.8461 224.999C164.02 224.999 298.039 163.461 443.06 163.461C506.49 163.461 574.271 156.875 636.863 167.307C651.34 169.72 693.934 166.967 694.769 189.529C695.883 219.592 692.186 226.077 664 240.17C621.725 261.308 564.144 267.96 517.846 271.153C463.963 274.869 413.463 286.161 361.863 301.068C277.8 325.353 186.249 340.384 98.829 340.384C67.3781 340.384 41.8418 344.931 17.8461 322.649C8.182 313.675 1.98221 283.72 2.46153 270.299C4.1599 222.744 79.1785 219.265 114 213.461" stroke="black" stroke-width="3" stroke-linecap="round"/>
<path d="M352.462 236.538C344.076 236.538 326.53 235.309 322.547 245.085C320.913 249.096 319.586 263.893 323.402 267.307C331.238 274.318 349.635 271.373 359.299 271.153C373.923 270.821 376.581 264.285 378.53 250.64C381.128 232.452 312.803 234.232 307.162 259.615C301.381 285.629 363.525 292.902 370.838 267.307C377.918 242.524 327.158 241.258 325.538 259.615C323.76 279.774 362.739 280.887 366.991 261.752C374.967 225.859 305.743 248.988 315.709 257.905C337.193 277.128 355.827 235.576 337.077 248.076" stroke="black" stroke-width="3" stroke-linecap="round"/>
</svg>
